# xmcd CD database file generated by Grip 2.94
# 
# Track frame offsets:
#       162
#       12835
#       25580
#       36775
#       49680
#       59840
#       70545
#       79342
#       89160
#       100357
#       110327
# 
# Disc length: 1600 seconds
# 
# Revision: 3
# Processed by: cddbd v1.4b41PL1 Copyright (c) Steve Scherf et al.
# Submitted via: Grip 2.94
# 
DISCID=8d063e0b
DTITLE=John Lee Hooker - The Big Soul Of John Lee Hooker
DYEAR=1900
DGENRE=
TTITLE0=San Francisco
TTITLE1=Take A Look At Yourself
TTITLE2=Send Me Your Pillow
TTITLE3=She Shot Me Down
TTITLE4=I Love Her
TTITLE5=Old Time Shimmy
TTITLE6=You Know I Love You
TTITLE7=Big Soul
TTITLE8=Good Rocking Mama
TTITLE9=Onions
TTITLE10=No One Told Me
EXTD=
EXTT0=
EXTT1=
EXTT2=
EXTT3=
EXTT4=
EXTT5=
EXTT6=
EXTT7=
EXTT8=
EXTT9=
EXTT10=
PLAYORDER=
